<svg
   width="100%"
   viewBox="0 0 210 297"
   version="1.1"
   id="svg-rose"
   xmlns="http://www.w3.org/2000/svg"
   xmlns:svg="http://www.w3.org/2000/svg">
  <defs
     id="rose-outline-defs" />
  <path
     d="m 97.905906,261.7284 c -0.81824,-0.29515 -1.09156,-0.96832 -0.69936,-1.72241 0.15211,-0.29249 0.95614,-1.64934 1.78673,-3.01522 1.521384,-2.50189 4.269564,-7.83567 4.954884,-9.61662 0.20335,-0.52849 0.60906,-1.54037 0.90156,-2.2486 1.36128,-3.29608 2.92811,-8.47158 3.13598,-10.3587 0.67243,-6.10429 -3.02275,-12.04035 -12.014122,-19.29984 -2.954361,-2.38531 -9.578038,-7.21822 -10.181143,-7.42859 -0.37613,-0.13118 -1.222665,-0.0767 -3.074301,0.19768 -17.733002,2.62823 -33.353123,-2.15645 -45.524008,-13.94467 -1.864046,-1.80543 -2.162262,-2.25776 -1.786886,-2.71032 0.272459,-0.3285 0.466783,-0.2731 2.643073,0.75368 4.837839,2.28248 8.244478,3.15319 13.720004,3.50667 1.911221,0.12335 2.746082,-0.0242 2.746082,-0.48544 0,-0.37 -1.279454,-0.94353 -4.136524,-1.85424 -3.885152,-1.23842 -4.665392,-1.61158 -7.813434,-3.73673 -4.231222,-2.85642 -8.757572,-6.38563 -12.733544,-9.92844 -2.137516,-1.90464 -2.451341,-2.31854 -2.164542,-2.85478 0.239349,-0.44747 0.255435,-0.44819 4.099865,-0.18193 2.093284,0.14498 2.966274,0.14323 3.24583,-0.006 0.759723,-0.40685 0.413413,-0.77625 -1.852244,-1.97574 -7.413257,-3.92472 -13.954756,-8.25043 -20.924339,-13.83668 -2.9583127,-2.37113 -4.0771047,-3.49915 -4.0134947,-4.04666 0.08242,-0.70958 0.71095,-0.69807 2.2325647,0.0409 1.579251,0.76695 3.75703,1.46534 5.636152,1.80742 2.183073,0.39742 7.551564,0.30777 11.490344,-0.19189 5.618539,-0.71274 7.987388,-0.91667 10.754962,-0.9258 5.028983,-0.0166 7.815346,0.70639 12.075083,3.1332 0.928291,0.52885 1.055769,0.43266 1.001571,-0.75592 -0.06058,-1.32819 0.407237,-1.47877 2.542143,-0.81825 3.403623,1.05305 6.082638,2.78718 8.710379,5.63823 0.822065,0.89194 1.642935,1.6217 1.82417,1.6217 0.579904,0 0.759668,-0.87461 0.415914,-2.02352 -0.506035,-1.69133 -0.511992,-1.76445 -0.171307,-2.10534 0.448785,-0.44906 1.257172,-0.28676 3.191006,0.64062 3.558421,1.70647 7.029774,4.53905 9.238475,7.53852 1.187146,1.61218 1.512332,1.91651 1.892028,1.77071 0.371533,-0.14265 0.350649,-0.70342 -0.09635,-2.58666 -0.729793,-3.0747 0.3694,-3.10108 3.249836,-0.0781 2.948882,3.09489 4.740917,7.3947 5.39298,12.93992 0.498534,4.23961 0.38295,14.59072 -0.17037,15.25785 -0.451561,0.54442 -1.0643,0.34149 -1.7733,-0.58729 -1.624569,-2.12814 -6.316766,-9.48292 -6.399644,-10.03115 -0.04927,-0.32579 -0.138251,-1.08738 -0.197726,-1.69244 -0.05949,-0.60506 -0.237473,-1.29757 -0.395506,-1.53889 -0.534439,-0.81615 -0.759006,-0.17026 -0.97633,2.80788 -0.110124,1.50936 -0.291689,2.85456 -0.403449,2.9893 -0.458235,0.55248 -1.050879,0.26433 -2.406152,-1.16989 -3.766351,-3.98571 -7.352533,-6.74434 -13.830679,-10.63906 -4.845358,-2.91309 -14.836129,-7.67683 -15.386471,-7.33649 -0.105399,0.0651 -0.03787,0.21531 0.158806,0.35316 0.448142,0.31409 4.180334,2.50984 5.935617,3.4921 5.193507,2.9063 14.366644,9.31814 20.314947,14.19973 2.006876,1.64698 2.211202,1.87083 2.262035,2.47816 0.06129,0.73211 -0.323182,1.12859 -1.618576,1.66907 -0.962725,0.40172 -1.2778,0.84643 -0.831184,1.17319 0.192449,0.14082 0.544422,0.25603 0.782153,0.25603 0.855359,0 3.290356,0.59146 4.474358,1.0868 2.613309,1.09335 4.202873,2.48086 7.817037,6.82334 3.230037,3.88099 5.003061,5.50048 9.083714,8.29712 8.728727,5.98216 9.624337,6.66576 11.959977,9.12905 0.99553,1.04992 1.88256,2.2201 2.47199,3.26109 1.10124,1.94481 1.39467,2.18925 1.95498,1.62858 0.3725,-0.37273 0.41863,-0.74278 0.73354,-5.88407 0.86301,-14.08974 0.80793,-32.71141 -0.12943,-43.75293 -0.14825,-1.74639 -0.0209,-1.93439 1.40291,-2.07128 1.76293,-0.16949 3.60234,1.06844 4.02512,2.70892 0.24673,0.95738 0.73321,10.14693 0.94189,17.79248 0.19789,7.25039 0.01,16.15712 -0.46037,21.76803 -0.14829,1.77059 -0.32677,3.90028 -0.39661,4.73266 -0.11108,1.32363 -0.088,1.52835 0.18368,1.63269 0.40763,0.15652 0.43969,0.1086 2.89844,-4.33198 1.14545,-2.0687 2.88367,-5.11176 3.8627,-6.76232 8.58296,-14.47019 16.97106,-22.18434 29.56559,-27.19021 1.98044,-0.78715 2.2244,-0.97178 3.64215,-2.75671 3.73409,-4.70116 8.6883,-7.20628 16.04383,-8.11267 2.85582,-0.35192 7.47109,-0.26719 10.61884,0.19493 2.38139,0.34963 2.86154,0.56433 2.93465,1.31225 0.0752,0.76892 -0.19647,0.94268 -2.00255,1.28114 -3.75496,0.70372 -6.64723,2.19082 -11.33864,5.82998 -2.65427,2.05896 -3.87307,2.88613 -5.32056,3.61105 -3.62924,1.81756 -6.1707,1.98221 -11.40988,0.73924 -0.89111,-0.21143 -1.05304,-0.19532 -2.02229,0.20107 -11.06703,4.52596 -20.32504,12.42545 -26.73743,22.81396 -1.60357,2.59789 -1.34292,3.01836 1.15545,1.86392 3.8074,-1.75929 7.5732,-2.0523 11.99769,-0.93351 1.54814,0.39147 8.46803,2.45053 9.35322,2.78311 0.59042,0.22184 0.822,0.7857 0.48805,1.18835 -0.30943,0.37306 -1.09049,0.28119 -4.72397,-0.55583 -3.86466,-0.89026 -6.62392,-1.15109 -9.1748,-0.86731 -6.79752,0.75627 -12.18377,4.74573 -17.60241,13.03762 -1.70465,2.60853 -2.37598,4.33006 -5.78952,14.84683 -3.6997,11.39835 -6.39298,17.11098 -9.51303,20.17772 -1.7933,1.76267 -4.093964,2.54062 -5.748494,1.94383 z m 3.447624,-0.88283 c 2.10862,-1.05431 4.24444,-3.85985 6.47302,-8.50262 1.61011,-3.35435 2.57663,-5.96887 5.79626,-15.67942 1.44247,-4.35058 2.86894,-8.45176 3.16994,-9.11372 1.86522,-4.10216 6.43439,-9.81685 9.97966,-12.48165 5.4044,-4.06222 11.28109,-4.85219 20.20418,-2.71595 1.45952,0.34942 2.76463,0.59268 2.90027,0.5406 0.38081,-0.14621 -0.0507,-0.55729 -0.74067,-0.70572 -0.32164,-0.0692 -1.49483,-0.41249 -2.6071,-0.76291 -6.15948,-1.94058 -7.65374,-2.28142 -10.47919,-2.39037 -2.58088,-0.0996 -4.63607,0.32915 -7.19967,1.50172 -1.97696,0.90423 -2.70267,0.86595 -2.78594,-0.14693 -0.0461,-0.5605 0.10145,-0.9751 0.72007,-2.02355 5.29576,-8.97529 13.39806,-16.60236 22.59969,-21.27419 4.92098,-2.49845 5.71183,-2.68774 8.31853,-1.99115 1.18948,0.31785 2.02148,0.40396 3.90184,0.40373 2.26813,0 2.46698,-0.0309 3.89969,-0.60139 2.02825,-0.80757 3.89919,-1.96599 6.76336,-4.1876 5.00365,-3.88114 7.75702,-5.32483 11.51617,-6.03836 1.54137,-0.29257 2.18032,-0.54159 2.18032,-0.84972 0,-0.83125 -6.6824,-1.58587 -11.16928,-1.26129 -8.36475,0.60509 -14.01836,3.30291 -17.99682,8.58785 -1.14363,1.51917 -0.97065,1.40231 -3.75278,2.5353 -13.91003,5.66464 -22.07157,13.90051 -32.44453,32.74003 -2.85184,5.17959 -3.06696,5.51247 -3.60228,5.5747 -0.82015,0.0954 -1.14247,-0.41886 -1.00856,-1.60888 1.21362,-10.78559 1.34023,-23.25605 0.40727,-40.11336 -0.20682,-3.73703 -0.29172,-4.42582 -0.62641,-5.08167 -0.75813,-1.4856 -2.35543,-2.32647 -3.62376,-1.90764 -0.77361,0.25546 -0.89357,0.61482 -0.65694,1.96787 0.77906,4.45493 0.92379,30.81565 0.23056,41.99679 -0.22269,3.59176 -0.44478,6.71094 -0.49351,6.93152 -0.1355,0.61305 -0.60425,0.97893 -1.25025,0.97582 -0.80588,-0.004 -0.90759,-0.0977 -1.69345,-1.56082 -1.88183,-3.50379 -4.4703,-5.84511 -12.403565,-11.21925 -6.135733,-4.15644 -7.638376,-5.44445 -10.94754,-9.38394 -5.106548,-6.07921 -6.954122,-7.39233 -11.427137,-8.12159 -1.958985,-0.3194 -2.444466,-0.55141 -2.444466,-1.16823 0,-0.45625 0.4122,-0.84294 1.470765,-1.37969 1.079908,-0.54754 1.487457,-0.93814 1.350768,-1.29453 -0.111576,-0.29093 -5.079744,-4.32478 -7.969207,-6.4705 -3.936831,-2.9235 -10.393319,-7.26045 -13.512662,-9.07671 -7.745467,-4.50991 -7.481152,-4.33768 -7.411235,-4.82936 0.145734,-1.02473 2.016619,-0.44048 8.329598,2.6012 9.170912,4.41868 16.424776,9.26167 21.15729,14.12557 1.12006,1.15116 2.131946,2.093 2.248614,2.093 0.292094,0 0.369088,-0.45692 0.54797,-3.25164 0.167373,-2.61505 0.313953,-3.00289 1.134915,-3.00289 0.650501,0 0.870839,0.49066 1.197202,2.66599 l 0.25367,1.69093 3.276715,4.94988 c 3.686489,5.56891 3.922454,5.78867 4.130016,3.84612 0.196255,-1.8369 0.169763,-10.52695 -0.03902,-12.785 -0.622188,-6.73007 -2.943825,-11.78631 -6.851756,-14.92232 -1.380275,-1.10763 -1.470121,-0.96969 -0.861077,1.32195 0.486235,1.82957 0.474082,2.3036 -0.06813,2.65909 -0.678206,0.44464 -1.227206,0.18154 -2.094459,-1.00375 -2.54047,-3.4721 -5.347496,-5.91197 -9.124676,-7.93118 -2.619578,-1.40038 -3.541343,-1.40021 -2.981202,5.6e-4 0.6521,1.63074 0.248412,3.31951 -0.793495,3.31951 -0.41926,0 -0.783495,-0.29066 -1.856049,-1.48114 -2.624818,-2.91341 -5.679246,-4.94094 -8.851573,-5.87568 -1.822314,-0.53697 -2.00296,-0.46848 -1.863863,0.70668 0.0951,0.80344 0.06124,0.93437 -0.290347,1.12264 -0.447461,0.23963 -0.984474,0.12036 -1.687554,-0.37481 -0.991626,-0.69839 -3.448813,-1.80695 -5.007235,-2.25901 -3.337439,-0.96816 -8.420639,-1.04306 -14.09617,-0.20775 -9.839172,1.44812 -15.210807,1.14874 -20.361956,-1.13485 -0.8348047,-0.37008 -1.5793787,-0.61019 -1.6546087,-0.53358 -0.384053,0.39103 7.2344677,6.48095 12.8578777,10.27805 3.822222,2.58087 5.999302,3.90591 10.342652,6.29481 3.551675,1.95347 3.69011,2.05077 3.74644,2.63339 0.112881,1.1673 0.0037,1.19556 -4.053351,1.04841 -2.502561,-0.0908 -3.634736,-0.0715 -3.634736,0.0616 0,0.20467 3.20257,3.09257 5.974979,5.38793 3.534392,2.92622 8.879866,6.78961 11.873532,8.58148 0.362433,0.21692 2.3066,0.9432 4.32037,1.61392 4.275272,1.42399 4.856407,1.72026 4.856407,2.47583 0,0.7546 -0.433654,0.91124 -2.522783,0.91124 -4.943238,0 -10.41983,-1.32166 -15.007676,-3.6218 -0.895291,-0.44887 -1.68123,-0.76163 -1.746532,-0.69502 -0.159836,0.16303 2.760091,2.94752 5.130871,4.8929 7.640159,6.26922 15.845753,9.86964 25.54456,11.20837 3.780231,0.52178 11.499555,0.43488 15.443022,-0.17382 3.385166,-0.52253 3.970714,-0.50711 4.97633,0.13101 1.161352,0.73697 7.816743,5.69497 10.007083,7.4549 2.75549,2.21403 6.968404,6.53137 8.336804,8.54342 1.33001,1.95562 2.45213,4.2419 2.91857,5.94644 0.49182,1.79731 0.43687,5.33145 -0.11263,7.24403 -2.27803,7.9288 -5.52877,15.31936 -9.477534,21.5471 -0.56196,0.88628 -1.02176,1.7567 -1.02176,1.93423 0,0.89714 2.15477,0.98112 3.819274,0.14884 z M 93.194684,207.5215 c -2.932428,-2.86872 -4.735309,-13.73919 -3.025454,-18.2419 0.608676,-1.60286 1.373473,-2.09209 1.917582,-1.2267 0.249221,0.39639 0.3726,1.11275 1.227683,7.12834 0.208518,1.46704 0.493975,3.41239 0.634341,4.32297 0.584464,3.79162 1.035657,7.4477 0.979603,7.93789 -0.08977,0.78517 -0.971073,0.82551 -1.733755,0.0793 z m 1.227794,-1.42377 c -0.197101,-1.18294 -1.378897,-9.40221 -1.966357,-13.67585 -0.578084,-4.20535 -0.849164,-4.81535 -1.581935,-3.5599 -1.336631,2.29003 -1.055347,9.84132 0.532545,14.29631 0.669381,1.87806 1.491263,3.35491 2.226498,4.00083 0.873541,0.76746 1.053637,0.5253 0.789249,-1.06139 z M 127.22532,181.5394 c -0.20223,-0.11097 -0.73998,-0.55317 -1.195,-0.98267 -0.45501,-0.4295 -2.60601,-2.20773 -4.77998,-3.95159 -8.4664,-6.79144 -10.8142,-9.97042 -11.14997,-15.09732 -0.11993,-1.83104 -0.34451,-2.35961 -0.80626,-1.89758 -0.20192,0.20205 -0.90682,3.51752 -1.46141,6.87372 -0.85624,5.18154 -1.06544,5.88662 -1.74658,5.88662 -1.21811,0 -6.156904,-5.12537 -8.597154,-8.92191 -2.53102,-3.93777 -4.652597,-9.89473 -5.026245,-14.11264 -0.166729,-1.88231 0.03232,-2.31952 1.555701,-3.41698 13.606318,-9.80213 29.019668,-12.503 48.921218,-8.57243 3.92825,0.77583 8.64442,1.88495 10.85135,2.55196 0.45502,0.13752 1.65461,0.47306 2.66576,0.74565 2.08126,0.56108 3.35268,0.93218 8.18113,2.38793 1.87062,0.564 4.10435,1.23577 4.96383,1.49286 0.85948,0.25708 2.05907,0.61915 2.66576,0.8046 9.50762,2.90612 12.50059,3.11908 19.24774,1.36966 0.60673,-0.15731 1.44594,-0.26096 1.86493,-0.23033 1.30126,0.0951 1.1414,0.52477 -0.94969,2.55234 -4.65448,4.5131 -10.6795,8.03993 -17.12953,10.02699 -5.36743,1.65354 -7.96937,2.87845 -14.46892,6.81144 -1.67513,1.01366 -5.63714,2.99578 -7.30644,3.65529 -2.63686,1.04176 -7.37758,1.97987 -8.32337,1.64704 -0.85453,-0.3007 -0.88531,-0.71296 -0.51026,-6.83744 0.36554,-5.96907 0.37971,-6.44265 0.1982,-6.62427 -0.21806,-0.21819 -0.43203,0.25094 -1.57296,3.44887 -1.54594,4.33313 -4.32315,11.30361 -4.88763,12.26741 -0.36841,0.62901 -0.71508,0.90453 -1.78607,1.41948 -1.12156,0.53928 -1.45525,0.81452 -2.13822,1.76368 -1.09883,1.52707 -3.63954,3.87002 -4.96081,4.57465 -1.14038,0.60819 -1.71201,0.69817 -2.31912,0.36497 z m 2.40745,-1.04135 c 1.48069,-0.95811 3.16809,-2.55494 4.33852,-4.10568 0.80907,-1.07195 1.19472,-1.40396 2.25985,-1.94549 1.48156,-0.75324 1.58923,-0.86457 2.28757,-2.36525 0.6309,-1.35572 3.52764,-8.83644 4.69015,-12.11213 0.94158,-2.65314 1.06743,-2.86735 1.68464,-2.86735 0.63956,0 0.70249,0.5444 0.46474,4.02065 -0.63035,9.21704 -0.61254,8.68067 -0.3039,9.15199 0.36953,0.56433 1.27602,0.58139 3.77857,0.0712 3.79162,-0.77315 6.76545,-2.0885 13.5069,-5.97416 5.68432,-3.27637 7.78834,-4.26133 11.39842,-5.33602 5.10206,-1.51884 8.5454,-3.11406 12.66517,-5.86744 3.13663,-2.09632 7.56299,-5.96397 7.21921,-6.30796 -0.0729,-0.0729 -1.06072,0.0902 -2.19506,0.36256 -5.80525,1.39403 -8.90461,1.39579 -14.28817,0.008 -1.79633,-0.46302 -2.34948,-0.62475 -7.99729,-2.33814 -1.82006,-0.55217 -3.59877,-1.08521 -3.95267,-1.18454 -0.3539,-0.0994 -1.59486,-0.47108 -2.75769,-0.82612 -3.37634,-1.03086 -9.08877,-2.63313 -11.58227,-3.24867 -1.26393,-0.31202 -2.58762,-0.64471 -2.94152,-0.73933 -0.35391,-0.0947 -1.84305,-0.41853 -3.30922,-0.71982 -7.94369,-1.63237 -10.20039,-1.89386 -17.18956,-1.99188 -5.41033,-0.0759 -5.86588,-0.0556 -8.98762,0.39998 -8.05721,1.17585 -15.08334,3.82737 -21.856824,8.24828 -2.370373,1.54711 -3.408934,2.40876 -3.641719,3.0214 -0.357947,0.94208 0.651824,5.68473 1.952034,9.16814 1.752595,4.69539 4.315815,8.54806 8.201259,12.32698 2.34506,2.28077 2.8363,2.63008 3.19213,2.2699 0.14943,-0.15126 0.5683,-2.08838 1.01054,-4.6733 0.89702,-5.24308 1.35112,-7.36134 1.6572,-7.73039 0.26469,-0.3191 1.20515,-0.36336 1.38921,-0.0653 0.0701,0.11349 0.19152,1.12757 0.2698,2.25347 0.34327,4.93674 2.61463,8.05968 10.3794,14.27087 1.82007,1.4559 4.04416,3.29533 4.94241,4.0876 1.92315,1.69626 2.16167,1.74363 3.71579,0.73803 z M 78.824234,141.64952 c -0.804489,-0.49081 -0.88869,-0.7442 -1.328706,-3.99923 -0.606617,-4.4875 -1.856122,-7.51863 -4.079954,-9.89734 -2.208868,-2.36273 -4.762813,-3.8569 -10.352341,-6.05661 -5.922803,-2.33084 -6.439556,-2.55139 -7.905375,-3.37395 -2.381442,-1.33637 -5.236435,-3.3717 -6.848245,-4.88215 -0.654269,-0.61312 -0.779872,-1.29501 -0.275768,-1.49721 0.640205,-0.25679 6.085745,-0.49016 8.870545,-0.38014 12.363886,0.48845 13.986709,1.16818 19.075939,7.99014 3.71298,4.97713 7.313079,8.66863 11.258588,11.54446 2.388943,1.74126 7.910945,4.83989 9.605359,5.38997 1.17196,0.38047 1.61197,1.41579 0.82188,1.93379 -0.36655,0.24031 -2.722164,0.78816 -6.014947,1.39888 -0.556133,0.10315 -2.748491,0.51609 -4.871906,0.91765 -8.043204,1.52106 -7.128186,1.41618 -7.955069,0.91174 z m 4.00239,-0.65052 c 3.285669,-0.61234 5.797109,-1.09165 11.582267,-2.21044 3.475415,-0.67211 3.899165,-1.04859 2.082475,-1.85015 -4.408764,-1.94525 -8.773072,-4.60096 -11.826286,-7.19639 -3.708035,-3.15208 -5.390553,-4.95682 -8.66212,-9.2913 -5.796961,-7.68036 -7.331318,-8.29522 -20.753179,-8.31634 -6.016013,-0.009 -7.30887,0.0766 -7.0659,0.46988 0.216956,0.35125 3.671799,3.02844 5.243862,4.06352 1.965125,1.29387 3.654831,2.14279 6.371956,3.20132 1.188249,0.4629 3.070496,1.19751 4.182762,1.63245 9.492201,3.71188 12.828849,7.51354 13.970273,15.91721 0.445126,3.27728 0.443269,3.27009 0.952834,3.67117 0.606892,0.47768 0.907535,0.4707 3.921056,-0.091 z m 83.098176,-1.92485 c -3.08136,-0.25159 -6.60844,-0.88337 -7.29218,-1.30619 -0.80453,-0.49753 -1.13064,-1.51506 -0.81907,-2.5556 0.26034,-0.86949 0.4696,-0.99439 3.23934,-1.93377 2.69613,-0.91441 3.81744,-1.38549 6.41615,-2.69557 4.48194,-2.25944 7.17755,-4.28915 13.66671,-10.2905 3.40155,-3.14583 3.94479,-3.50333 4.75939,-3.13194 0.69305,0.31596 0.92397,1.14758 1.15573,4.16196 0.561,7.29694 0.68488,7.88747 1.79913,8.57653 0.57942,0.35832 0.80421,0.38587 2.27952,0.27947 5.27495,-0.38046 4.9286,-0.3773 5.0556,-0.0461 0.21483,0.56015 -0.47257,1.00225 -5.14868,3.31134 -6.8841,3.39942 -9.62838,4.47985 -13.3622,5.26074 -2.18957,0.45793 -8.31,0.6505 -11.74944,0.36969 z m 12.40957,-0.97436 c 3.59664,-0.91749 6.3838,-2.0697 12.59342,-5.20613 5.26536,-2.65949 5.24485,-2.62293 1.29842,-2.31161 -2.32158,0.18314 -3.19821,0.0896 -3.98369,-0.42545 -0.92835,-0.60864 -1.04209,-1.19213 -1.62926,-8.35734 -0.43224,-5.27441 -0.57426,-5.33257 -4.36252,-1.78655 -9.1429,8.55821 -12.70255,10.82664 -22.25934,14.18499 -0.80475,0.28279 -1.50757,0.64884 -1.60862,0.83779 -0.46376,0.86703 -0.0555,1.96865 0.91588,2.47127 0.43543,0.2253 3.49742,0.76956 6.0746,1.07972 0.35391,0.0426 3.00128,0.056 5.88306,0.0299 4.92691,-0.0447 5.34929,-0.0755 7.07805,-0.51655 z m -75.59821,-3.54726 C 95.609347,133.35535 87.822828,128.24359 81.957127,120.91134 72.395893,108.95957 68.248761,93.688219 71.653009,82.967517 c 0.932281,-2.935972 2.411539,-5.545089 4.250031,-7.496243 0.790204,-0.838618 1.002766,-0.965774 1.614494,-0.965774 0.87402,0 1.087115,0.29947 1.620892,2.27788 2.249571,8.337883 7.286992,14.488809 17.059852,20.830885 1.540298,0.999566 3.887412,2.519715 5.215852,3.378095 7.4605,4.8208 13.23516,11.00334 15.13377,16.20269 1.90376,5.2135 1.71609,9.01579 -0.67392,13.6534 -0.95026,1.84387 -1.59784,2.36521 -3.80005,3.05922 -3.00178,0.94599 -6.22148,1.16834 -9.33777,0.64486 z m 6.66833,-0.45747 c 2.28004,-0.41056 4.44533,-1.24121 5.07136,-1.94548 0.16697,-0.18783 0.60189,-0.88751 0.9665,-1.55486 5.10215,-9.33863 -0.16469,-19.86881 -14.69196,-29.37416 -1.658344,-1.08506 -3.991104,-2.605619 -5.183916,-3.378997 -9.151111,-5.933312 -14.484782,-12.288872 -16.513223,-19.677028 -0.583967,-2.126976 -1.099488,-3.291121 -1.457435,-3.291121 -0.76921,0 -2.918015,2.666288 -4.244809,5.267063 -1.731788,3.394668 -2.36918,6.353101 -2.37282,11.013123 -0.0055,7.055055 2.170792,14.62569 6.258468,21.77134 6.536332,11.42612 15.517535,19.00506 24.893755,21.00701 1.80087,0.38452 5.57463,0.46914 7.27408,0.16311 z m 25.42098,-0.27132 c -1.72,-0.26812 -3.10649,-0.61994 -4.84247,-1.22881 -1.35373,-0.47479 -1.56269,-0.62841 -1.56269,-1.14877 0,-0.5127 0.41356,-0.87228 1.47077,-1.27881 0.45501,-0.17496 1.57188,-0.70955 2.48191,-1.18797 7.62036,-4.00612 13.69051,-11.03707 19.39546,-22.46537 1.27668,-2.55749 1.73874,-2.96942 4.87829,-4.34894 7.25611,-3.18835 15.21958,-5.032867 21.72868,-5.032867 3.14062,0 3.62766,1.232967 1.74611,4.420417 -1.75761,2.97751 -3.3998,4.92817 -6.12594,7.27669 -1.93341,1.6656 -1.92026,1.64368 -2.82538,4.71287 -1.0339,3.50588 -3.43893,7.38768 -6.19762,10.00316 -2.59662,2.46182 -3.72945,3.01535 -8.68834,4.2453 -3.91972,0.9722 -5.09714,1.43967 -7.52163,2.98623 -4.57765,2.92002 -8.81209,3.84573 -13.93715,3.04687 z m 8.30248,-0.90601 c 1.86429,-0.59725 3.94354,-1.60522 5.51761,-2.67481 1.84862,-1.25613 3.65592,-1.98341 6.84431,-2.75426 5.12929,-1.24009 6.49979,-1.86925 8.84446,-4.06024 3.22594,-3.01449 5.38771,-6.57256 6.65782,-10.9581 0.64414,-2.22416 0.78316,-2.43281 2.78974,-4.18691 3.60601,-3.15229 7.31601,-8.347849 6.96374,-9.7522 -0.23747,-0.946743 -0.90533,-1.082415 -4.22154,-0.857619 -7.19122,0.487485 -14.61372,2.448639 -20.96305,5.538779 -1.91085,0.92998 -2.20725,1.27517 -3.78283,4.40538 -3.4013,6.7574 -6.61101,11.41045 -10.66302,15.45797 -3.42024,3.41646 -6.47617,5.55008 -10.48397,7.31979 -2.01357,0.88913 -2.10944,1.03421 -1.0021,1.51639 2.70913,1.17965 5.39112,1.64779 8.99462,1.56998 2.59084,-0.0559 3.12784,-0.12319 4.50421,-0.56415 z m -21.95641,-1.85862 c -0.34921,-0.34944 -0.34925,-9e-4 0,-3.6173 0.28491,-2.94668 0.26391,-4.1506 -0.12595,-7.22301 -0.73566,-5.79769 -3.27573,-10.5716 -7.9238,-14.89238 -1.33701,-1.24287 -2.38776,-2.03939 -5.66023,-4.29074 -0.79627,-0.54781 -1.04754,-0.84177 -1.18233,-1.383281 -0.25777,-1.035617 0.19942,-1.513786 2.58553,-2.704157 4.83365,-2.411371 9.62869,-2.783836 15.19617,-1.180365 2.64606,0.762061 3.93153,1.269169 7.76016,3.061244 5.41529,2.534759 8.93599,3.585619 13.76648,4.109029 3.16028,0.34243 3.32333,0.37507 3.68597,0.73794 0.49717,0.49746 0.33217,1.05806 -1.25239,4.25519 -6.71088,13.54036 -13.31615,19.88698 -23.88777,22.95237 -1.8538,0.53753 -2.55863,0.57929 -2.96221,0.17546 z m 3.75571,-0.93322 c 7.87037,-2.38599 13.86721,-7.46458 19.30098,-16.34559 1.74177,-2.84676 4.78278,-8.80199 4.78278,-9.36616 0,-0.5461 -0.18816,-0.61617 -2.2668,-0.84403 -2.96368,-0.3249 -4.39247,-0.56717 -6.5984,-1.11885 -3.17309,-0.79356 -5.2383,-1.5721 -9.24358,-3.484656 -2.63201,-1.256791 -5.79033,-2.458169 -8.08921,-3.077013 -1.66001,-0.446861 -2.15073,-0.49539 -5.05575,-0.499943 -3.62146,-0.006 -5.07805,0.304804 -8.2187,1.751881 -3.47742,1.60224 -3.64751,2.287545 -0.99128,3.994051 10.06334,6.46526 14.19512,15.02791 13.04336,27.03095 -0.30735,3.20313 -0.46355,3.11142 3.3366,1.95936 z M 61.776296,109.69383 c -7.163999,-0.99065 -12.616434,-6.66675 -13.532242,-14.087371 -0.507818,-4.114688 0.05957,-7.919992 2.62513,-17.605778 1.675696,-6.326364 1.74679,-6.514632 2.487209,-6.587071 0.510502,-0.04995 0.664564,0.05822 1.310046,0.919784 1.178376,1.572868 2.674621,4.42886 4.077399,7.782792 2.894887,6.921511 3.880445,8.886649 5.549744,11.065905 1.147178,1.497634 1.39684,2.099745 1.818857,4.386475 0.186732,1.011763 0.673684,3.619352 1.082115,5.794644 1.452986,7.7384 1.389688,7.27387 1.05998,7.77738 -0.19142,0.29233 -0.538024,0.48876 -0.995928,0.56447 -0.748932,0.12383 -4.562126,0.11602 -5.48231,-0.0112 z m 5.801116,-0.60976 c 0.43906,-0.23513 0.462225,-0.92832 0.0897,-2.68546 -0.273507,-1.29009 -0.823408,-4.20713 -1.660125,-8.806518 -0.693796,-3.81373 -0.893269,-4.35766 -2.324359,-6.33864 -1.303502,-1.804327 -2.672507,-4.320211 -3.631243,-6.673261 -2.695285,-6.6151 -3.83248,-9.015537 -5.306811,-11.201716 -1.44964,-2.149572 -1.580336,-2.104809 -2.337559,0.800598 -0.244551,0.938358 -0.815299,3.071984 -1.268331,4.741393 -1.925193,7.094518 -2.508039,10.39431 -2.506053,14.188291 0.0026,4.850127 1.421622,8.545043 4.442884,11.568143 2.767022,2.7687 5.643762,4.15056 9.711951,4.66519 1.039131,0.13145 4.400802,-0.0496 4.789946,-0.25802 z m 85.950938,-7.64202 c -0.62713,-0.62752 -0.13439,-1.34983 1.31343,-1.925353 7.0566,-2.805058 13.40326,-7.602246 15.4583,-11.684323 1.48139,-2.942593 0.46146,-6.32994 -2.39473,-7.953221 -1.74736,-0.993093 -2.94931,-1.218552 -6.57669,-1.233654 -1.87063,-0.0078 -3.50456,-0.07816 -3.63095,-0.156388 -0.38827,-0.2403 -0.25937,-0.990334 0.2374,-1.381318 1.61562,-1.271632 9.04599,-1.701867 12.34762,-0.714956 4.55335,1.36106 6.85665,4.194061 6.85665,8.433521 0,3.385013 -2.07459,6.543785 -6.02819,9.178591 -2.21684,1.477365 -4.75587,2.704948 -11.43714,5.529699 -1.26394,0.534372 -2.87485,1.247192 -3.5798,1.584032 -1.40924,0.67337 -2.12584,0.76368 -2.5659,0.32337 z m 2.00917,-0.62883 c 0.30335,-0.17825 1.87523,-0.878109 3.49307,-1.555229 4.96187,-2.076728 6.73178,-2.867477 8.54882,-3.819403 7.35798,-3.854742 10.21589,-8.152956 8.72244,-13.118289 -1.28584,-4.275128 -6.37258,-6.613 -13.01476,-5.981588 -3.16714,0.301074 -5.71005,1.094526 -5.35421,1.670649 0.0487,0.07891 1.51524,0.141138 3.25891,0.138293 5.46243,-0.0089 8.2205,1.15126 9.6471,4.058005 0.77628,1.581669 0.74519,4.027987 -0.0732,5.760423 -1.9919,4.21672 -7.8194,8.748099 -15.09838,11.740271 -1.72765,0.710208 -2.03785,0.964568 -1.68908,1.385078 0.25827,0.31137 0.68566,0.23512 1.55925,-0.27821 z m -8.61009,0.0594 c -0.37058,-0.37079 0.10494,-1.561387 2.42149,-6.063023 3.1518,-6.12475 4.11018,-7.74569 5.72105,-9.676496 2.40181,-2.878822 4.84144,-4.201631 7.79654,-4.227398 5.82709,-0.0508 7.59199,3.15086 4.04427,7.336588 -1.86259,2.197546 -5.76749,4.970697 -12.66017,8.990903 -1.51673,0.884646 -3.52726,2.093008 -4.46787,2.685257 -1.57659,0.992689 -2.50631,1.303379 -2.85531,0.954169 z m 1.89358,-0.991542 c 0.63466,-0.410449 2.98462,-1.829018 5.22215,-3.152369 9.10761,-5.386595 12.34925,-7.929549 13.82641,-10.846357 1.15586,-2.282364 -0.11442,-3.897244 -3.47514,-4.417859 -4.81922,-0.746555 -8.55689,2.166657 -12.66718,9.873026 -2.41781,4.53317 -4.5697,8.932751 -4.45777,9.113971 0.17201,0.27849 0.32704,0.22149 1.55153,-0.570412 z m -7.43959,-0.450763 c -1.30857,-0.62799 -3.25,-1.528185 -6.52651,-3.026223 -2.98097,-1.362895 -3.30922,-1.60215 -3.30922,-2.41183 0,-0.568063 0.25723,-0.818684 1.49751,-1.459025 2.93669,-1.516191 7.29365,-5.435463 9.51284,-8.557241 2.64711,-3.723693 3.85626,-7.474229 3.25122,-10.084633 -0.7022,-3.029681 -2.74674,-4.854525 -7.01904,-6.264781 -1.76434,-0.582406 -2.15965,-0.83225 -1.9952,-1.261065 0.37691,-0.982758 4.99591,-0.478827 7.61643,0.830951 6.09966,3.048699 7.13728,12.271418 2.82988,25.152812 -0.60414,1.806671 -2.21027,5.573892 -2.82345,6.622447 -0.45022,0.769907 -0.54113,0.830323 -1.29966,0.863763 -0.54262,0.02392 -1.12322,-0.111677 -1.7348,-0.405175 z m 2.20023,-0.203003 c 1.34005,-1.340872 4.18271,-9.30307 5.27966,-14.788179 0.62639,-3.132214 0.62123,-8.659074 -0.01,-10.669501 -1.48621,-4.733643 -4.53382,-7.079333 -9.49223,-7.305986 -2.2862,-0.104506 -2.36414,0.04085 -0.36768,0.685861 4.90351,1.584198 7.20764,4.016883 7.40281,7.815846 0.23672,4.607934 -3.33089,10.611266 -9.11207,15.333155 -1.28572,1.050146 -3.22095,2.347621 -4.38094,2.937194 -1.3759,0.699325 -1.19635,1.151659 0.82256,2.072367 1.64722,0.751184 3.49094,1.610555 6.46263,3.012304 2.71308,1.279745 2.95741,1.345014 3.39522,0.906939 z M 98.824806,95.240297 c -0.62728,-0.317592 -0.91693,-0.972959 -0.92015,-2.081966 -0.005,-1.873646 0.58007,-2.290133 7.718814,-5.490896 7.31663,-3.280524 12.41248,-4.797117 18.59207,-5.533258 2.46245,-0.293339 3.08082,1.784022 0.86596,2.909174 -0.33764,0.171512 -2.3512,1.23485 -4.47462,2.362973 -7.68884,4.08491 -11.47058,5.857551 -15.01154,7.03649 -2.99045,0.995643 -5.739534,1.31946 -6.770534,0.797483 z m 4.684444,-0.707818 c 3.35156,-0.822812 8.62452,-3.152453 15.25918,-6.74164 0.91003,-0.492305 2.7301,-1.460931 4.04459,-2.152498 2.72914,-1.435826 3.03346,-1.656795 3.03346,-2.202661 0,-0.951027 -0.73184,-1.033728 -4.08375,-0.461491 -5.30271,0.905278 -8.88225,2.028799 -14.76042,4.632867 -4.75741,2.107564 -7.903884,3.74442 -8.268694,4.301515 -0.76908,1.174495 -0.42437,2.675349 0.68738,2.992821 0.765524,0.218603 2.235404,0.08595 4.088254,-0.368913 z m 13.17914,-2.193257 c -0.34224,-0.137345 -0.41413,-0.2868 -0.36768,-0.764416 0.068,-0.699822 0.0764,-0.704542 3.36694,-1.896267 6.58939,-2.386473 12.51814,-6.756646 16.79756,-12.381757 1.9756,-2.596818 2.49559,-2.299408 2.35644,1.347738 -0.16857,4.417683 -1.45144,7.390314 -4.34707,10.072839 -1.89481,1.755375 -4.94167,3.184168 -7.72888,3.624388 -1.47747,0.233355 -9.49453,0.231346 -10.07731,-0.0025 z m 9.06616,-0.355504 c 6.06478,-0.642389 10.81321,-4.58206 12.21023,-10.130543 0.39621,-1.573589 0.67297,-4.508868 0.49286,-5.226979 -0.16265,-0.648436 -0.42131,-0.471204 -1.60317,1.09854 -4.25393,5.650024 -11.13785,10.571043 -17.9022,12.797552 -1.84763,0.608154 -2.48886,0.960859 -2.2267,1.224782 0.3211,0.323273 6.64608,0.489049 9.02898,0.236648 z M 91.540901,90.252211 c -0.521826,-0.522151 -0.625074,-0.759409 -0.625074,-1.436495 0,-0.918733 0.190703,-1.239651 1.094027,-1.841093 l 0.634414,-0.422396 0.009,-2.574171 c 0.0085,-2.384204 0.0417,-2.628474 0.451562,-3.31 0.962762,-1.600883 2.22977,-2.620236 4.025006,-3.238258 2.2417,-0.771728 2.59738,-0.457673 2.76562,2.441909 0.10371,1.787511 0.166444,2.088691 0.446144,2.142191 0.17901,0.03424 2.56021,-1.105676 5.29155,-2.533149 2.73134,-1.427471 5.20608,-2.643434 5.49943,-2.70214 0.41451,-0.08295 0.63851,-0.0015 1.00517,0.365348 0.44379,0.444052 0.4718,0.581651 0.4718,2.317116 0,1.755391 -0.0246,1.872028 -0.50557,2.400782 -0.35648,0.391861 -3.09923,1.803216 -9.30045,4.785784 -10.004693,4.811917 -10.043613,4.824372 -11.262674,3.604572 z m 7.160045,-2.207477 c 2.613424,-1.274825 4.774254,-2.317863 4.801834,-2.317863 0.42172,0 8.06225,-3.971454 8.35364,-4.342126 0.7741,-0.984701 0.38277,-4.119892 -0.51423,-4.119892 -0.18629,0 -1.07353,0.384967 -1.97162,0.855481 -7.92188,4.150342 -8.22317,4.295313 -8.92687,4.295313 -0.920134,0 -1.070984,-0.372209 -1.070984,-2.64256 0,-1.076031 -0.0809,-1.77975 -0.22061,-1.919571 -0.94385,-0.944415 -4.523391,1.071297 -5.630766,3.17078 -0.457058,0.866559 -0.492117,1.098085 -0.503295,3.322898 -0.01489,2.968254 0.03982,2.728876 -0.716961,3.136673 -1.184774,0.638434 -1.281403,1.696458 -0.235377,2.577171 0.857014,0.721573 1.295982,0.58818 6.635239,-2.016304 z m -33.711196,0.06637 c -0.790113,-1.477244 -0.465166,-9.00201 0.566943,-13.128376 2.000974,-7.999995 6.319836,-13.27408 10.053996,-12.277727 1.567044,0.418118 2.188331,1.387164 2.612242,4.074311 0.446836,2.832498 0.228116,3.558631 -1.306259,4.336622 -6.139098,3.112807 -9.491447,7.990921 -10.10413,14.702918 -0.110823,1.214115 -0.286009,2.310958 -0.389275,2.437429 -0.303749,0.372005 -1.205751,0.280655 -1.433517,-0.145177 z m 1.29078,-1.26185 c 0,-6.828268 3.712851,-12.767123 9.969555,-15.946714 1.846011,-0.938119 1.928153,-1.129082 1.554947,-3.614759 -0.330554,-2.201491 -0.694991,-3.14815 -1.413,-3.670297 -1.248605,-0.908002 -2.520834,-0.720789 -4.313457,0.634733 -3.56561,2.696182 -5.995569,8.169772 -6.838556,15.404078 -0.371111,3.184829 -0.268433,7.292437 0.200208,8.008086 0.44816,0.684392 0.840303,0.303994 0.840303,-0.815127 z m 19.521468,-3.340081 c -0.525228,-0.210769 -1.98088,-3.221212 -2.663534,-5.508492 -1.399157,-4.687983 -1.682904,-9.653137 -0.767427,-13.428854 1.196026,-4.93279 4.360392,-8.814422 6.84273,-8.393785 0.380009,0.06439 0.948349,0.165878 1.262981,0.225522 0.513481,0.09734 0.730032,-0.03148 2.114224,-1.257646 3.049114,-2.701014 5.138534,-3.930395 8.260398,-4.860262 1.62838,-0.485021 1.94855,-0.517665 5.04787,-0.514685 3.84798,0.0037 5.53869,0.334508 9.36985,1.833319 3.49308,1.366546 5.85631,2.64063 9.99608,5.389182 5.60442,3.720988 7.54366,7.22646 6.83496,12.355256 -0.4901,3.546841 -1.68752,4.11305 -3.20919,1.517495 -3.97097,-6.773324 -9.36103,-10.912473 -16.37326,-12.573372 -2.85961,-0.677318 -8.9309,-0.638878 -12.31765,0.07799 -3.414444,0.722729 -7.772332,2.159844 -9.649523,3.182162 -1.314642,0.715954 -1.384853,0.947362 -1.357919,4.475373 0.02668,3.49479 0.475222,6.088458 1.609218,9.304932 0.636804,1.80624 0.751284,2.331948 0.694146,3.187506 -0.04657,0.697387 -4.67203,5.285392 -5.213087,5.170873 -0.03029,-0.0064 -0.246684,-0.08854 -0.480867,-0.182512 z m 2.730217,-2.303832 c 1.085552,-1.070374 2.12382,-2.225007 2.30726,-2.565849 l 0.333533,-0.619717 -0.772224,-2.354997 c -1.261714,-3.84772 -1.53068,-5.38427 -1.63834,-9.359584 -0.119665,-4.418801 -0.123507,-4.408752 2.085893,-5.444746 0.857125,-0.4019 2.674383,-1.098186 4.038387,-1.547302 14.247606,-4.691245 26.314676,-1.251616 33.305456,9.493474 2.04055,3.136415 2.14757,3.262413 2.55961,3.013556 0.64007,-0.386591 0.86964,-1.488243 0.87797,-4.213061 l 0.008,-2.575396 -0.76792,-1.563633 c -1.32124,-2.690314 -3.08187,-4.316084 -7.95377,-7.344511 -6.79158,-4.22172 -11.75789,-5.945799 -17.10862,-5.939338 -4.95855,0.006 -8.447814,1.438014 -12.656277,5.194263 -1.858182,1.658501 -1.891495,1.670578 -3.809058,1.380785 -0.761801,-0.115126 -1.061634,-0.07278 -1.65461,0.233627 -1.98487,1.025666 -4.023017,4.24768 -4.910587,7.762872 -0.589721,2.335623 -0.571631,7.393513 0.0362,10.11763 0.522066,2.339792 1.476297,5.1465 2.31899,6.820883 0.572403,1.137307 0.80425,1.402526 1.261144,1.442654 0.09095,0.008 1.053545,-0.861237 2.139097,-1.93161 z m 30.006405,-0.751094 c -0.4213,-0.170099 -0.2634,-1.112726 0.25469,-1.520507 1.50984,-1.188351 3.25129,-0.787786 2.71013,0.623365 -0.25556,0.666396 -2.13086,1.233853 -2.96482,0.897142 z m 1.79981,-0.617735 c 0.47792,-0.243965 0.72806,-0.496772 0.72806,-0.735828 0,-0.454185 -0.52612,-0.479767 -1.34202,-0.06525 -0.94202,0.478612 -1.08317,0.632693 -0.84388,0.921201 0.28435,0.342837 0.60222,0.316645 1.45784,-0.120124 z m 5.14035,0.476769 c -0.25278,-0.146437 -1.06418,-0.932861 -1.80311,-1.747604 -1.50048,-1.654442 -3.12821,-2.897759 -4.74603,-3.625161 -2.11068,-0.949002 -2.38185,-1.667042 -1.2594,-3.334793 0.88608,-1.316548 1.56914,-1.347193 2.87091,-0.128794 0.57208,0.535432 1.65818,1.20329 3.03044,1.863458 3.09849,1.490632 4.47478,3.103083 4.47923,5.247897 0.003,1.50037 -1.37004,2.421308 -2.57204,1.724997 z m 1.7549,-0.740605 c 0.58364,-0.583998 0.56864,-1.047175 -0.0782,-2.415382 -0.69136,-1.462286 -1.62074,-2.339355 -3.32357,-3.136513 -2.44364,-1.143949 -2.84078,-1.378914 -3.72269,-2.202391 -0.47596,-0.44444 -0.94831,-0.808072 -1.04967,-0.808072 -0.25732,0 -1.03032,0.863752 -1.41856,1.585104 -0.31363,0.582711 -0.31263,0.617628 0.0279,0.99413 0.1941,0.214614 0.94522,0.664041 1.66916,0.998724 1.6455,0.760727 2.97553,1.740362 4.39426,3.236616 0.60669,0.639837 1.32423,1.396435 1.59451,1.681328 0.61235,0.645454 1.30417,0.669563 1.90692,0.06645 z m 26.55731,0.08362 c -0.32366,-0.323865 -0.36808,-0.615702 -0.37089,-2.43743 -0.006,-3.495263 -0.74277,-5.864237 -2.80042,-8.996909 -5.25387,-7.998731 -19.31755,-16.052571 -30.14955,-17.265718 -0.93593,-0.104822 -1.84226,-0.234093 -2.01403,-0.287271 -0.38079,-0.11788 -0.5814,-0.682386 -0.42157,-1.186284 0.22779,-0.71812 3.91072,-2.269102 7.44425,-3.134972 2.58618,-0.633724 7.97533,-0.640323 10.38728,-0.01271 6.40574,1.666828 10.51318,5.676485 12.41865,12.123018 0.6649,2.24949 0.79779,2.420717 2.69177,3.468212 2.87476,1.589921 4.8058,3.840255 5.50631,6.41672 0.58751,2.160905 0.45593,9.289197 -0.1947,10.548155 -0.5374,1.039821 -1.82753,1.435164 -2.4971,0.765195 z m 1.73543,-0.724224 c 0.63011,-0.658098 0.81341,-2.008269 0.8285,-6.103063 0.0122,-3.277617 -0.15947,-4.28084 -1.02744,-6.008441 -0.84091,-1.673722 -2.3009,-3.074794 -4.60515,-4.41927 -2.10779,-1.22985 -2.21155,-1.35131 -2.73433,-3.200691 -1.12873,-3.992858 -2.82824,-6.787557 -5.45554,-8.971145 -5.70204,-4.739076 -14.57015,-5.273345 -22.70693,-1.368004 -1.96418,0.942735 -1.78925,1.418104 0.5975,1.623674 5.08804,0.438231 12.9533,3.273356 18.66032,6.726335 9.92365,6.0042 14.99643,12.853295 14.86299,20.067496 -0.018,0.968935 0.0274,1.858826 0.10073,1.977537 0.23778,0.384978 0.94956,0.228879 1.47935,-0.324428 z m -41.50948,-0.53197 c -0.88145,-0.974585 0.27573,-2.974816 1.72099,-2.974816 1.48471,0 1.88094,1.934119 0.60241,2.940434 -0.61623,0.48501 -1.89866,0.503989 -2.3234,0.03438 z m 1.63124,-0.251276 c 1.02702,-0.468219 1.25157,-1.87287 0.33614,-2.102763 -1.28554,-0.322845 -2.50037,1.719564 -1.30857,2.2 0.36348,0.146522 0.45863,0.137005 0.97243,-0.09724 z m -12.85464,-0.990995 c -0.2857,-0.744961 0.21552,-2.963656 1.03249,-4.570379 0.60949,-1.198668 2.06122,-2.58247 3.31924,-3.163913 1.07664,-0.497607 1.28644,-0.528723 3.56486,-0.528723 2.30902,0 2.44281,0.02061 2.89556,0.445968 0.6105,0.573582 0.63771,1.457006 0.061,1.981943 -0.2275,0.207095 -0.99276,0.604075 -1.70057,0.882179 -2.71243,1.065734 -4.80599,2.343443 -6.79483,4.146905 -1.2583,1.141002 -2.1353,1.438289 -2.37777,0.80602 z m 1.96282,-1.143621 c 1.96327,-1.827538 4.66587,-3.452487 7.27698,-4.375309 1.63657,-0.578403 2.02454,-1.505674 0.89378,-2.136128 -0.73101,-0.407572 -3.90536,-0.271042 -5.18807,0.223143 -1.37242,0.528747 -2.95211,2.051714 -3.62195,3.491887 -0.67194,1.444666 -1.11358,3.309919 -0.85695,3.619321 0.27756,0.334642 0.21674,0.368094 1.49621,-0.822914 z M 94.624469,75.6026 c -1.973361,-1.203841 -2.873267,-7.208078 -1.619624,-10.806187 0.754612,-2.165815 1.248292,-2.600976 4.306781,-3.796304 7.734974,-3.023008 13.245324,-2.037255 21.673344,3.87719 6.06902,4.258983 6.11814,4.303078 5.87479,5.273265 -0.19084,0.760839 -1.75969,1.101057 -3.03156,0.657414 -0.60404,-0.210699 -0.65142,-0.311274 -0.90123,-1.913165 -0.17123,-1.097993 -0.61549,-1.280261 -1.50915,-0.619157 -0.75612,0.559364 -1.53149,0.506568 -2.92926,-0.199455 -0.63258,-0.319518 -1.99164,-0.861387 -3.02013,-1.204154 -6.48152,-2.160101 -11.3358,0.128632 -14.919224,7.034229 -1.03735,1.999074 -2.436894,2.603974 -3.924737,1.696324 z m 2.497297,-0.589523 c 0.23788,-0.223602 0.77162,-1.02944 1.18612,-1.790751 2.269354,-4.168189 5.142324,-6.698859 8.370384,-7.373072 2.73558,-0.571355 6.61235,0.09079 9.87516,1.686669 1.72369,0.84306 1.86054,0.856116 2.67461,0.255149 1.20106,-0.886658 2.02255,-0.496265 2.16081,1.026871 0.12191,1.343281 0.41433,1.640504 1.61399,1.640504 1.01075,0 1.45404,-0.278198 1.3421,-0.842269 -0.094,-0.473564 -7.01711,-5.390804 -9.98881,-7.09469 -5.2908,-3.033588 -10.06115,-3.466694 -15.810714,-1.435475 -3.442967,1.216344 -4.229146,1.798602 -4.971753,3.682161 -1.200806,3.045826 -0.915496,7.092941 0.683409,9.694274 0.720821,1.172739 1.951299,1.40925 2.864694,0.550629 z"
     id="rose-path" />
</svg>
